<?xml version="1.0" standalone="no"?>
<!DOCTYPE svg PUBLIC "-//W3C//DTD SVG 20010904//EN"
 "http://www.w3.org/TR/2001/REC-SVG-20010904/DTD/svg10.dtd">
<svg version="1.0" xmlns="http://www.w3.org/2000/svg"
 width="765.000000pt" height="765.000000pt" viewBox="0 0 765.000000 765.000000"
 preserveAspectRatio="xMidYMid meet">
<metadata>
Created by potrace 1.14, written by Peter Selinger 2001-2017
</metadata>
<g transform="translate(0.000000,765.000000) scale(0.100000,-0.100000)"
fill="#000000" stroke="none">
<path d="M1691 7302 c-1 -7 -13 -12 -28 -12 -47 0 -63 -3 -63 -13 0 -6 -3 -8
-6 -5 -7 8 -74 -19 -98 -40 -14 -12 -17 -13 -11 -3 9 15 -64 -36 -77 -54 -4
-5 -8 -6 -8 -2 0 4 -6 2 -14 -5 -8 -7 -12 -16 -9 -20 2 -5 -1 -8 -6 -8 -11 0
-51 -36 -51 -45 0 -3 -2 -5 -5 -5 -12 -1 -51 -46 -47 -54 3 -5 -2 -7 -11 -3
-9 3 -16 2 -14 -2 1 -5 -26 -36 -60 -69 -34 -33 -59 -63 -56 -66 4 -3 1 -6 -5
-6 -11 0 -81 -65 -82 -75 0 -3 -3 -5 -7 -6 -5 0 -12 -7 -16 -15 -5 -8 -13 -12
-18 -8 -5 3 -8 2 -7 -3 4 -12 -44 -63 -53 -57 -5 3 -6 -3 -2 -12 3 -10 2 -15
-3 -12 -8 4 -46 -28 -51 -45 -2 -4 -6 -8 -10 -9 -16 -6 -80 -74 -76 -80 2 -5
-2 -8 -10 -8 -7 0 -20 -11 -27 -25 -7 -13 -16 -23 -19 -22 -9 3 -191 -182
-191 -193 0 -6 -7 -10 -15 -10 -8 0 -14 -3 -14 -7 3 -20 -2 -34 -10 -29 -9 6
-26 -22 -23 -36 1 -5 -2 -8 -7 -8 -8 0 -22 -35 -18 -44 1 -2 -7 -14 -18 -27
-12 -13 -14 -19 -5 -14 13 8 13 7 0 -9 -15 -20 -18 -29 -27 -96 -3 -25 -11
-48 -17 -52 -8 -5 -7 -8 1 -8 9 0 10 -7 3 -25 -5 -13 -6 -27 -1 -29 4 -3 8
-21 9 -41 1 -19 6 -44 12 -55 6 -11 8 -20 5 -20 -2 0 4 -22 15 -49 10 -27 16
-52 12 -57 -4 -4 -1 -4 6 0 8 5 12 0 12 -13 0 -12 5 -21 10 -21 6 0 10 -7 10
-15 0 -8 5 -15 12 -15 6 0 9 -3 5 -6 -3 -3 2 -15 11 -26 35 -44 253 -258 262
-258 6 0 10 -7 10 -15 0 -8 5 -15 10 -15 6 0 10 -7 10 -15 0 -9 8 -19 17 -22
22 -9 189 -174 185 -185 -1 -4 2 -8 8 -8 7 0 112 -96 165 -151 57 -60 70 -74
67 -81 -1 -4 3 -8 8 -8 6 0 76 -65 155 -145 80 -80 145 -142 145 -138 0 4 8
-3 18 -16 9 -12 52 -57 96 -99 43 -42 86 -85 95 -95 69 -78 704 -707 713 -707
6 0 9 -3 6 -6 -8 -7 45 -62 54 -57 5 2 8 -3 8 -12 0 -9 4 -13 10 -10 5 3 10 1
10 -4 0 -15 427 -441 434 -434 3 4 6 1 6 -6 0 -6 49 -61 109 -120 60 -60 107
-112 103 -117 -4 -4 -2 -5 4 -1 12 7 84 -64 84 -83 0 -7 7 -10 17 -6 10 4 14
4 11 0 -8 -7 37 -54 52 -54 6 0 9 -3 7 -7 -6 -10 100 -113 107 -105 3 3 6 -2
6 -12 0 -9 4 -14 10 -11 6 3 10 1 10 -5 0 -14 167 -180 174 -173 3 4 6 -1 6
-10 0 -10 8 -17 17 -17 9 0 13 -3 10 -7 -4 -3 5 -15 20 -25 16 -10 24 -18 19
-18 -4 0 14 -21 40 -46 27 -25 48 -51 46 -56 -1 -5 2 -7 8 -3 5 3 13 -1 16 -9
3 -8 14 -18 25 -21 10 -4 19 -12 19 -18 0 -7 13 -23 29 -37 17 -13 27 -28 24
-33 -3 -6 -1 -7 4 -4 6 4 25 -9 42 -28 17 -19 36 -35 42 -35 7 0 10 -3 6 -6
-8 -8 18 -34 34 -34 7 0 10 -2 7 -5 -7 -7 101 -115 114 -115 5 0 7 -3 5 -8 -6
-9 19 -33 27 -25 3 4 6 2 6 -3 0 -12 67 -84 78 -84 5 0 15 -11 22 -25 7 -13
21 -27 32 -31 10 -3 18 -9 18 -13 0 -11 121 -131 132 -131 5 0 6 -4 3 -10 -3
-5 2 -10 11 -10 10 0 14 -3 11 -6 -7 -7 30 -44 43 -44 4 0 13 -11 20 -25 7
-13 17 -22 22 -19 4 3 8 0 8 -6 0 -13 86 -100 100 -100 5 0 10 -4 10 -10 0 -5
7 -10 15 -10 8 0 15 -5 15 -11 0 -5 4 -7 10 -4 6 3 10 2 10 -3 0 -9 140 -78
153 -74 4 1 7 -3 7 -9 0 -5 4 -8 9 -5 5 4 11 1 13 -4 2 -6 10 -12 18 -14 8 -1
32 -10 54 -19 21 -9 42 -17 47 -17 5 0 9 -5 9 -10 0 -6 3 -9 8 -8 13 3 62 -14
62 -22 0 -4 8 -7 18 -7 28 0 62 -14 62 -26 0 -6 3 -8 6 -4 4 3 23 -1 43 -9 20
-9 41 -17 48 -18 7 -1 16 -5 19 -9 4 -4 16 -7 26 -7 10 0 18 -4 18 -8 0 -5 6
-9 13 -10 41 -3 70 -10 75 -18 4 -5 17 -9 29 -8 12 1 20 -3 17 -7 -3 -5 6 -9
20 -9 14 0 26 -3 26 -7 0 -5 12 -9 27 -10 30 -1 165 -44 173 -54 3 -3 13 -5
23 -3 9 1 17 -2 17 -6 0 -5 8 -9 18 -9 39 -1 92 -14 92 -22 0 -5 11 -9 25 -9
14 0 25 -4 25 -8 0 -4 10 -9 23 -10 39 -3 62 -8 82 -19 11 -6 28 -9 38 -8 9 2
17 0 17 -5 0 -8 64 -25 88 -23 6 0 12 -4 12 -9 0 -6 9 -8 20 -5 10 3 24 -1 29
-7 6 -7 21 -12 33 -11 12 1 34 -4 48 -12 14 -7 31 -13 38 -13 6 0 12 -5 12
-11 0 -6 6 -9 14 -6 8 3 17 -1 20 -9 3 -8 9 -14 13 -13 14 2 53 -13 53 -20 0
-4 6 -8 13 -8 6 0 31 -9 55 -21 23 -11 39 -16 36 -11 -3 5 9 1 27 -10 18 -11
36 -18 41 -15 4 3 8 0 8 -6 0 -6 3 -9 8 -7 4 3 18 0 32 -6 14 -5 36 -9 49 -8
13 2 21 -2 17 -7 -3 -5 2 -9 12 -9 61 0 83 -4 76 -14 -4 -8 -1 -8 12 -1 11 5
25 7 32 5 6 -3 12 0 12 5 0 5 11 7 25 4 15 -2 25 0 25 7 0 6 3 10 8 10 21 -4
32 4 49 34 11 17 18 44 18 60 -1 15 2 27 7 27 5 0 6 5 3 11 -4 6 -8 34 -10 63
-2 28 -15 84 -28 123 -18 51 -22 73 -14 77 7 2 4 5 -6 5 -10 1 -17 7 -14 14 2
6 -7 31 -20 55 -13 23 -21 48 -17 54 4 7 3 8 -4 4 -11 -6 -15 5 -11 30 0 4 -3
10 -8 13 -15 11 -73 134 -73 156 0 12 -3 25 -7 29 -4 3 -8 14 -9 24 -1 9 -8
35 -14 57 -6 22 -12 50 -13 62 0 12 -5 19 -11 16 -5 -4 -7 3 -4 15 4 12 0 23
-8 26 -8 3 -11 12 -8 21 4 8 2 21 -4 28 -5 6 -8 22 -7 34 1 13 -1 23 -4 23 -4
0 -13 21 -20 48 -7 26 -20 66 -27 90 -8 23 -14 50 -14 60 0 9 -6 29 -14 43
-16 31 -30 80 -27 97 1 6 -2 12 -8 12 -5 0 -8 8 -7 18 2 9 -4 27 -12 40 -8 12
-12 22 -9 22 3 0 -1 17 -10 37 -8 21 -17 48 -19 60 -2 12 -9 35 -16 50 -6 16
-10 33 -9 40 1 6 -3 14 -9 18 -5 3 -10 15 -10 26 0 10 -5 19 -12 19 -6 0 -9 3
-5 6 3 4 0 19 -9 35 -8 16 -12 29 -8 29 3 0 -1 11 -10 25 -9 14 -14 25 -11 25
3 0 0 10 -7 23 -7 12 -11 25 -10 30 1 4 -3 7 -9 7 -5 0 -8 4 -4 9 3 5 1 12 -5
16 -5 3 -10 15 -10 26 0 11 -4 17 -10 14 -5 -3 -10 3 -10 14 0 22 -40 114 -52
119 -4 2 -4 10 -1 18 3 8 1 14 -5 14 -5 0 -13 11 -16 25 -4 14 -11 25 -17 25
-6 0 -8 4 -4 9 3 5 -1 16 -9 24 -8 8 -13 17 -10 19 2 3 -2 11 -11 18 -8 7 -15
19 -15 26 0 8 -4 14 -10 14 -5 0 -10 7 -10 16 0 8 -4 12 -10 9 -5 -3 -10 3
-10 15 0 12 -4 19 -9 16 -5 -3 -17 7 -27 22 -9 15 -35 42 -56 61 -21 18 -36
37 -33 41 3 4 -9 13 -25 20 -28 12 -35 22 -30 45 1 6 -2 7 -5 3 -4 -4 -64 49
-132 117 -69 69 -130 125 -136 125 -6 0 -8 2 -5 5 7 7 -465 482 -474 478 -5
-3 -8 0 -8 6 0 13 -638 651 -651 651 -5 0 -8 3 -6 8 3 10 -40 52 -55 52 -6 0
-9 2 -6 6 7 6 -84 100 -94 97 -7 -3 -12 12 -9 29 0 5 -2 7 -7 7 -18 -3 -33 2
-28 9 3 5 -17 28 -44 51 -28 24 -47 48 -43 54 3 5 2 8 -3 5 -12 -7 -365 347
-356 357 4 5 2 6 -3 2 -13 -7 -121 102 -117 117 2 6 1 8 -3 4 -4 -4 -18 5 -32
20 -14 15 -28 26 -32 25 -3 0 -12 5 -19 13 -7 8 -10 14 -7 14 8 0 -8 15 -53
53 -19 15 -31 27 -28 27 2 0 -20 25 -51 55 -31 30 -60 55 -65 55 -4 0 -8 6 -8
14 0 8 -7 17 -16 20 -8 3 -12 11 -9 16 4 6 3 10 -2 9 -17 -3 -33 1 -31 9 1 4
-57 65 -129 136 -210 206 -335 331 -375 374 -20 22 -39 38 -42 34 -3 -3 -6 0
-6 7 0 7 -14 24 -30 38 -17 14 -27 30 -23 36 3 7 3 9 -1 5 -10 -9 -76 53 -76
72 0 13 -1 13 -10 0 -5 -8 -10 -10 -10 -4 0 14 -97 114 -111 114 -5 0 -9 3 -7
8 5 9 -49 61 -56 54 -4 -3 -6 1 -6 9 0 8 -9 21 -20 29 -11 8 -20 21 -20 30 0
13 -1 13 -10 0 -9 -13 -10 -13 -11 0 -1 8 0 19 1 25 1 5 -2 7 -6 3 -4 -4 -38
23 -75 61 -37 38 -70 66 -73 63 -4 -3 -6 -1 -6 5 0 6 -46 57 -102 114 -57 56
-102 107 -100 112 1 5 -2 6 -8 2 -5 -3 -10 -1 -10 5 0 6 -3 9 -7 7 -5 -3 -14
1 -21 9 -7 8 -11 14 -8 14 3 0 -16 20 -42 45 -25 25 -50 45 -54 45 -4 0 -8 7
-8 15 0 8 -4 15 -10 15 -5 0 -18 10 -30 22 -11 12 -20 18 -20 14 0 -4 -10 2
-22 13 -11 11 -25 18 -30 15 -4 -3 -8 2 -8 11 0 9 -4 13 -10 10 -5 -3 -10 -1
-10 5 0 6 -4 9 -9 5 -5 -3 -16 1 -24 9 -8 8 -17 12 -21 9 -3 -3 -12 0 -21 7
-8 7 -15 9 -15 5 0 -4 -6 -2 -13 4 -8 6 -17 8 -20 4 -4 -3 -7 -2 -7 3 0 6 -16
8 -36 6 -22 -3 -34 -1 -31 5 3 5 0 10 -8 10 -8 0 -15 -5 -15 -11 0 -6 -5 -4
-10 4 -8 13 -10 13 -10 1 0 -11 -3 -12 -11 -4 -8 8 -20 8 -35 3 -15 -6 -24 -5
-28 3 -3 9 -5 9 -5 -1z"/>
</g>
</svg>
